custom-analysis
version=1
nRows=4
nColumns=98
inDegrees=no

This file contains tibia displacement and acting force.

Units are S.I. units (seconds, meters, Newtons, ...)
Angles are in degrees.

endheader
time	APT	SIT	knee_angle	aACL_R_force	pACL_R_force	aPCL_R_force	pPCL_R_force	aMCL_R_force	mMCL_R_force	pMCL_R_force	aLCL_R_force	mLCL_R_force	pLCL_R_force	aPCL_L_force	pPCL_L_force	aMCL_L_force	aLCL_L_force	aACL_R_length	pACL_R_length	aPCL_R_length	pPCL_R_length	aMCL_R_length	mMCL_R_length	pMCL_R_length	aLCL_R_length	mLCL_R_length	pLCL_R_length	aPCL_L_length	pPCL_L_length	aMCL_L_length	aLCL_L_length	aACL_R_strain	pACL_R_strain	aPCL_R_strain	pPCL_R_strain	aMCL_R_strain	mMCL_R_strain	pMCL_R_strain	aLCL_R_strain	mLCL_R_strain	pLCL_R_strain	aPCL_L_strain	pPCL_L_strain	aMCL_L_strain	aLCL_L_strain	femur_lat_meniscii_r.femur_lat_r.force.X	femur_lat_meniscii_r.femur_lat_r.force.Y	femur_lat_meniscii_r.femur_lat_r.force.Z	femur_lat_meniscii_r.femur_lat_r.torque.X	femur_lat_meniscii_r.femur_lat_r.torque.Y	femur_lat_meniscii_r.femur_lat_r.torque.Z	femur_lat_meniscii_r.meniscus_lat_r.force.X	femur_lat_meniscii_r.meniscus_lat_r.force.Y	femur_lat_meniscii_r.meniscus_lat_r.force.Z	femur_lat_meniscii_r.meniscus_lat_r.torque.X	femur_lat_meniscii_r.meniscus_lat_r.torque.Y	femur_lat_meniscii_r.meniscus_lat_r.torque.Z	femur_med_meniscii_r.femur_med_r.force.X	femur_med_meniscii_r.femur_med_r.force.Y	femur_med_meniscii_r.femur_med_r.force.Z	femur_med_meniscii_r.femur_med_r.torque.X	femur_med_meniscii_r.femur_med_r.torque.Y	femur_med_meniscii_r.femur_med_r.torque.Z	femur_med_meniscii_r.meniscus_med_r.force.X	femur_med_meniscii_r.meniscus_med_r.force.Y	femur_med_meniscii_r.meniscus_med_r.force.Z	femur_med_meniscii_r.meniscus_med_r.torque.X	femur_med_meniscii_r.meniscus_med_r.torque.Y	femur_med_meniscii_r.meniscus_med_r.torque.Z	femur_med_tibia_r.tibia_upper_r.force.X	femur_med_tibia_r.tibia_upper_r.force.Y	femur_med_tibia_r.tibia_upper_r.force.Z	femur_med_tibia_r.tibia_upper_r.torque.X	femur_med_tibia_r.tibia_upper_r.torque.Y	femur_med_tibia_r.tibia_upper_r.torque.Z	femur_med_tibia_r.femur_med_r.force.X	femur_med_tibia_r.femur_med_r.force.Y	femur_med_tibia_r.femur_med_r.force.Z	femur_med_tibia_r.femur_med_r.torque.X	femur_med_tibia_r.femur_med_r.torque.Y	femur_med_tibia_r.femur_med_r.torque.Z	femur_lat_tibia_r.tibia_upper_r.force.X	femur_lat_tibia_r.tibia_upper_r.force.Y	femur_lat_tibia_r.tibia_upper_r.force.Z	femur_lat_tibia_r.tibia_upper_r.torque.X	femur_lat_tibia_r.tibia_upper_r.torque.Y	femur_lat_tibia_r.tibia_upper_r.torque.Z	femur_lat_tibia_r.femur_lat_r.force.X	femur_lat_tibia_r.femur_lat_r.force.Y	femur_lat_tibia_r.femur_lat_r.force.Z	femur_lat_tibia_r.femur_lat_r.torque.X	femur_lat_tibia_r.femur_lat_r.torque.Y	femur_lat_tibia_r.femur_lat_r.torque.Z	femur_lat_meniscii_force_r	femur_med_meniscii_force_r	femur_lat_tibia_force_r	femur_med_tibia_force_r
      0.10637386	      0.00807045	      0.00727152	     27.35023393	      8.59371570	    -11.18187875	      0.00000000	     55.17770554	      0.00000000	      0.00000000	    -38.25389227	      0.00000000	      0.00000000	      0.00000000	      0.00000000	      0.00000000	      0.00000001	      0.00000000	      0.03240637	      0.02539483	      0.03093992	      0.03010058	      0.05717273	      0.05951189	      0.05890669	      0.05355265	      0.05052157	      0.04701607	      0.01525851	      0.01651186	      0.06550154	      0.04489616	      0.04518137	      0.01341367	     -0.00499688	      0.00711923	     -0.04754975	     -0.00470966	      0.00304270	     -0.04331309	     -0.10293284	     -0.10176455	      0.00000079	     -0.32847694	      0.00000060	     -0.00000086	     66.79923396	    293.94670144	     45.00237881	    -25.62540828	      1.74930814	     26.42708900	    -66.79923396	   -293.94670144	    -45.00237881	      9.08861996	     -2.33316499	      1.93291376	    -34.68592071	     68.37894213	      7.08620164	     -1.26625933	      0.83590933	    -14.19135268	     34.68592071	    -68.37894213	     -7.08620164	     -1.28768037	     -0.82556279	      1.59035152	    -87.47402724	   -492.12910209	    108.72721508	    -11.57623963	      2.17757445	      0.57071083	     87.47402724	    492.12910209	   -108.72721508	     54.25009482	     -1.33005153	     37.59769679	    -34.80953928	   -127.82501993	    -31.93192219	      4.37231958	     -1.21285529	      0.08571013	     34.80953928	    127.82501993	     31.93192219	    -16.28888154	      0.82705713	     14.44910826	    304.78191391	     77.00004595	    136.27394248	    511.53139285
      0.10714463	      0.00812664	      0.00737396	     27.69647250	      7.95694364	    -11.68449173	      0.00000000	     56.59037000	      0.00000000	      0.00000000	    -38.48725730	      0.00000000	      0.00000000	      0.00000000	      0.00000000	      0.00000000	      0.00000001	      0.00000000	      0.03239283	      0.02537064	      0.03099771	      0.03014060	      0.05720043	      0.05950667	      0.05886600	      0.05354658	      0.05049427	      0.04696748	      0.01525851	      0.01651186	      0.06550154	      0.04489616	      0.04474473	      0.01244843	     -0.00313829	      0.00845825	     -0.04708839	     -0.00479697	      0.00234975	     -0.04342154	     -0.10341760	     -0.10269278	      0.00000079	     -0.32847694	      0.00000060	     -0.00000086	     64.25793065	    292.96640436	     44.61673400	    -25.42628038	      1.67535147	     25.33175687	    -64.25793065	   -292.96640436	    -44.61673400	      9.02463909	     -2.25272891	      2.08144912	    -34.62739216	     69.60781393	      7.98299479	     -1.60775748	      0.82740880	    -14.17139357	     34.62739216	    -69.60781393	     -7.98299479	     -1.28858085	     -0.82792834	      1.61263815	    -91.61007558	   -493.39577924	    108.34473044	    -11.58678172	      2.25471728	      0.50006829	     91.61007558	    493.39577924	   -108.34473044	     54.10048279	     -1.40452606	     39.31879611	    -32.67744691	   -119.10303600	    -29.90286408	      4.07140163	     -1.14278050	      0.10029387	     32.67744691	    119.10303600	     29.90286408	    -15.23619339	      0.77896478	     13.54951722	    303.23101538	     78.15390107	    127.07293182	    513.39106102
      0.10798872	      0.00818930	      0.00748779	     28.07770140	      7.05535776	    -12.40000728	      0.00000000	     59.08466850	      0.00000000	      0.00000000	    -38.64177372	      0.00000000	      0.00000000	      0.00000000	      0.00000000	      0.00000000	      0.00000001	      0.00000000	      0.03237689	      0.02534316	      0.03106082	      0.03018376	      0.05723077	      0.05950061	      0.05882108	      0.05353972	      0.05046388	      0.04691370	      0.01525851	      0.01651186	      0.06550154	      0.04489616	      0.04423064	      0.01135172	     -0.00110892	      0.00990247	     -0.04658287	     -0.00489837	      0.00158494	     -0.04354408	     -0.10395705	     -0.10372029	      0.00000079	     -0.32847694	      0.00000060	     -0.00000086	     66.04783246	    294.69347192	     43.95966312	    -25.19127520	      1.73972628	     26.06177025	    -66.04783246	   -294.69347192	    -43.95966312	      9.03368816	     -2.31793784	      2.09060141	    -34.56096727	     70.39148797	      9.36458598	     -2.16883226	      0.82041032	    -14.15174465	     34.56096727	    -70.39148797	     -9.36458598	     -1.25648077	     -0.83700976	      1.63504906	    -95.02087043	   -495.44160425	    108.68323001	    -11.64186757	      2.33067625	      0.47945675	     95.02087043	    495.44160425	   -108.68323001	     54.27137474	     -1.46723723	     40.72723623	    -30.96254242	   -111.81405520	    -28.10051062	      3.81415316	     -1.08471667	      0.11350423	     30.96254242	    111.81405520	     28.10051062	    -14.31042267	      0.73977506	     12.82435714	    305.18684530	     78.97542345	    119.37629861	    516.04592191
      0.10883282	      0.00825292	      0.00760303	     28.46100193	      6.33414754	    -12.88219666	     26.89290647	     60.73582686	      0.00000000	      0.00000000	    -39.29385623	      0.00000000	      0.00000000	      0.00000000	      0.00000000	      0.00000000	      0.00000001	      0.00000000	      0.03235988	      0.02531475	      0.03112408	      0.03022658	      0.05726140	      0.05949446	      0.05877608	      0.05353294	      0.05043329	      0.04685962	      0.01525851	      0.01651186	      0.06550154	      0.04489616	      0.04368201	      0.01021817	      0.00092550	      0.01133512	     -0.04607257	     -0.00500114	      0.00081868	     -0.04366528	     -0.10450027	     -0.10475343	      0.00000079	     -0.32847694	      0.00000060	     -0.00000086	     64.00802496	    296.68230336	     42.97409545	    -24.82391762	      1.67346393	     25.16097056	    -64.00802496	   -296.68230336	    -42.97409545	      9.03651178	     -2.24079140	      2.27036158	    -32.69604956	     71.37838564	      9.97442007	     -2.39295404	      0.77749159	    -13.36871021	     32.69604956	    -71.37838564	     -9.97442007	     -1.26592597	     -0.80668808	      1.58387227	   -100.45002403	   -498.77066880	    108.84229021	    -11.70053771	      2.43854099	      0.39651070	    100.45002403	    498.77066880	   -108.84229021	     54.38028730	     -1.56751116	     42.98392527	    -29.37635191	   -105.89836703	    -26.30823914	      3.59299116	     -1.02991253	      0.13406428	     29.37635191	    105.89836703	     26.30823914	    -13.42105845	      0.70374015	     12.15310873	    306.53578790	     79.14161137	    113.00246739	    520.29706085
